<svg xmlns="http://www.w3.org/2000/svg"><defs><font horiz-adv-x="550"><font-face ascent="765" descent="-235"/><glyph horiz-adv-x="1000"/><glyph horiz-adv-x="1000"/><glyph horiz-adv-x="1000"/><glyph horiz-adv-x="230"/><glyph horiz-adv-x="230"/><glyph horiz-adv-x="230"/><glyph unicode="!" horiz-adv-x="294" d="M67 670h160l-39-461h-83zm3-610q0 30 22 51.5t53 21.5q32 0 53.5-21t21.5-53q0-30-22-51.5t-53-21.5q-32 0-53.5 21t-21.5 53z"/><glyph unicode=""" horiz-adv-x="450" d="M58 646h144l-34-224h-75zm190 0h144l-34-224h-75z"/><glyph unicode="#" d="M32 164v96h94l15 91h-96v96h112l23 139h95l-23-139h96l23 139h95l-23-139h82v-96h-98l-15-91h100v-96h-116l-23-139h-95l23 139h-96l-23-139h-95l23 139h-78zm189 96h96l15 91h-96z"/><glyph unicode="$" d="M64 37l16 107q78-48 163-53v193l-11 6q-41 20-62.5 33t-46 35-35 50.5-10.5 66.5q0 80 46.5 125.5t122.5 56.5v108h75v-106q83-5 139-42l-19-110q-66 42-120 47v-177q88-44 125.5-84t37.5-114q0-73-46-123.5t-121-64.5v-105h-75v101q-56 3-104.5 17.5t-74.5 32.5zm135 449q0-22 9.5-37t38.5-33v132q-48-14-48-62zm119-384q45 21 45 75 0 25-10 40t-35 30v-145z"/><glyph unicode="%" horiz-adv-x="802" d="M28 499q0 75 46 118t121 43 120.5-43.5 45.5-111.5q0-77-46.5-119.5t-122.5-42.5q-72 0-118 42.5t-46 113.5zm107 1q0-30 13-54t45-24q61 0 61 81 0 77-59 77-60 0-60-80zm8-459l447 619 72-54-448-620zm298 100q0 75 46 118t121 43 120.5-43.5 45.5-111.5q0-77-46.5-119.5t-122.5-42.5q-72 0-118 42.5t-46 113.5zm107 1q0-30 13-54t45-24q61 0 61 81 0 77-59 77-60 0-60-80z"/><glyph unicode="&" horiz-adv-x="679" d="M25 164q0 63 41.5 120t106.5 88q-31 37-44.5 66.5t-13.5 65.5q0 73 54 111t130 38q80 0 129-38t49-106q0-92-127-165l87-99q48 64 74 116h132q-52-90-136-195l27-30q24-27 38.5-35t34.5-8h20v-93q-32-5-75-5-62 0-112 62l-13 15q-84-86-196-86-95 0-150.5 48.5t-55.5 129.5zm122 8q0-40 25.5-60t63.5-20q68 0 124 59l-118 140q-95-52-95-119zm91 332q0-27 44-81 72 44 72 84 0 19-15 31.5t-40 12.5q-27 0-44-12.5t-17-34.5z"/><glyph unicode="'" horiz-adv-x="260" d="M58 646h144l-34-224h-75z"/><glyph unicode="(" horiz-adv-x="448" d="M53 314q0 329 297 472l40-81q-217-126-217-391t217-391l-40-81q-297 143-297 472z"/><glyph unicode=")" horiz-adv-x="448" d="M58-77q217 126 217 391t-217 391l40 81q297-143 297-472t-297-472z"/><glyph unicode="*" horiz-adv-x="432" d="M28 449l162 37-162 39 60 109 113-125-47 161h123l-47-162 114 126 60-109-160-39 160-37-60-108-114 122 47-159h-123l47 157-113-120z"/><glyph unicode="+" d="M50 255v96h175v175h98v-175h177v-96h-177v-174h-98v174h-175z"/><glyph unicode="," horiz-adv-x="250" d="M18-97q54 67 54 122 0 37-14 77h129q11-26 11-61 0-99-110-183z"/><glyph unicode="-" horiz-adv-x="350" d="M35 209v84h280v-84h-280z"/><glyph unicode="." horiz-adv-x="250" d="M50 60q0 30 22 51.5t53 21.5q32 0 53.5-21t21.5-53q0-30-22-51.5t-53-21.5q-32 0-53.5 21t-21.5 53z"/><glyph unicode="/" horiz-adv-x="556" d="M9-235l438 1010h100l-438-1010h-100z"/><glyph unicode="0" d="M46 323q0 155 59.5 246t169.5 91q112 0 170.5-92.5t58.5-244.5q0-162-61.5-249.5t-167.5-87.5q-105 0-167 87t-62 250zm131 0q0-226 98-226 51 0 74.5 54t23.5 172q0 32-1 56t-6.5 58.5-15.5 56.5-29 38.5-46 16.5q-49 0-73.5-52.5t-24.5-173.5z"/><glyph unicode="1" d="M99 0v91l127 8v438l-127-16v94l189 37h66v-553l123-8v-91h-378z"/><glyph unicode="2" d="M48 0v63q127 114 209.5 222t82.5 182q0 39-24.5 60.5t-63.5 21.5q-70 0-146-72l-53 95q35 38 92 63t116 25q92 0 147.5-48.5t55.5-128.5q0-87-57.5-179.5t-162.5-199.5h238l-6-104h-428z"/><glyph unicode="3" d="M56 64l73 93q55-64 127-64 50 0 73 25t23 58q0 48-40 73.5t-115 25.5h-41v93q168 12 168 111 0 33-19.5 53t-56.5 20q-32 0-71-19.5t-65-49.5l-48 88q78 89 207 89 78 0 127.5-41.5t49.5-119.5q0-118-125-160 66-8 108-51.5t42-108.5q-1-86-60-139.5t-167-53.5q-114 0-190 78z"/><glyph unicode="4" d="M27 155v70l330 427h83v-395h70v-102h-70v-155h-123v155h-290zm161 102h129v166z"/><glyph unicode="5" d="M60 65l72 92q56-64 130-64 50 0 73 25.5t23 64.5q0 53-38.5 81t-134.5 28h-93l30 354h317l-7-103h-208l-11-150h11q114 0 184.5-50.5t70.5-150.5q0-92-61-149t-161-57q-115 0-197 79z"/><glyph unicode="6" d="M57 246q0 161 108 273t272 141l27-102q-193-39-254-170 44 14 86 14 94 0 147.5-52.5t53.5-142.5q0-91-59.5-156t-159.5-65q-105 0-163 70.5t-58 189.5zm124-4q0-36 8-67.5t33-57.5 64-26q41 0 67 29.5t26 78.5q0 104-95 104-56 0-101-16-2-30-2-45z"/><glyph unicode="7" d="M63 543l7 103h421v-76l-243-570h-142l257 543h-300z"/><glyph unicode="8" d="M62 162q0 118 106 177-47 35-67 69t-20 87q0 79 56 122t138 43q89 0 143.5-39.5t54.5-119.5q0-104-96-165 56-35 83-71.5t27-92.5q0-82-61-134t-149-52q-101 0-158 47t-57 129zm120 5q0-36 25.5-55.5t66.5-19.5q52 0 72.5 26.5t20.5 50.5q0 33-18 51t-67 47q-3 1-4.5 2l-4.5 3-5 3q-40-15-63-43.5t-23-64.5zm21 318q0-43 79-94 69 39 69 99 0 34-20 49.5t-51 15.5q-77 0-77-70z"/><glyph unicode="9" d="M53 439q0 91 59.5 156t159.5 65q105 0 163-70.5t58-189.5q0-161-108-273t-272-141l-27 102q193 40 254 169-41-13-86-13-94 0-147.5 52.5t-53.5 142.5zm118 1q0-37 21-67t74-30q60 0 100 15 3 23 3 46 0 36-8 67.5t-33 57.5-64 26q-43 0-68-31t-25-84z"/><glyph unicode=":" horiz-adv-x="250" d="M50 60q0 30 22 51.5t53 21.5q32 0 53.5-21t21.5-53q0-30-22-51.5t-53-21.5q-32 0-53.5 21t-21.5 53zm0 285q0 30 22 51.5t53 21.5q32 0 53.5-21t21.5-53q0-30-22-51.5t-53-21.5q-32 0-53.5 21t-21.5 53z"/><glyph unicode=";" horiz-adv-x="250" d="M18-97q54 67 54 122 0 37-14 77h129q11-26 11-61 0-99-110-183zm32 442q0 30 22 51.5t53 21.5q32 0 53.5-21t21.5-53q0-30-22-51.5t-53-21.5q-32 0-53.5 21t-21.5 53z"/><glyph unicode="<" d="M70 280v50l368 195 42-85-272-135 272-135-42-85z"/><glyph unicode="=" d="M50 153v96h450v-96h-450zm0 206v96h450v-96h-450z"/><glyph unicode=">" d="M70 170l272 135-272 135 42 85 368-195v-50l-368-195z"/><glyph unicode="?" horiz-adv-x="424" d="M38 635q28 20 76.5 34.5t97.5 14.5q84 0 134-43t50-115q0-36-17.5-68t-42.5-55.5-50-45-42.5-47-17.5-51.5q0-27 4-50h-112q-9 27-9 62 0 38 16 70.5t39 54.5 46 42 39 42 16 45q0 53-67 53-57 0-121-37zm66-575q0 30 22 51.5t53 21.5q32 0 53.5-21t21.5-53q0-30-22-51.5t-53-21.5q-32 0-53.5 21t-21.5 53z"/><glyph unicode="@" horiz-adv-x="941" d="M35 220q0 194 122.5 322t329.5 128q63 0 120-11.5t111.5-39.5 94.5-70.5 64-108 24-148.5q0-138-72.5-221t-186.5-83q-23 0-45.5 5t-43.5 20-23 38q-25-28-65-46.5t-82-18.5q-55 0-89 29t-34 79q0 27 10.5 50.5t26 39.5 41.5 30.5 46.5 22.5 52 16.5 49 11.5 44.5 8v52q0 33-16.5 46.5t-58.5 13.5q-70 0-159-37l-19 89q48 28 107.5 42.5t100.5 14.5q91 0 129-37.5t38-111.5v-255q0-14 7-22t18-8q63 0 104 68.5t41 160.5q0 81-27.5 142.5t-75.5 96.5-106.5 52-126.5 17q-167 0-269.5-101.5t-102.5-275.5q0-176 104-273.5t291-97.5q78 0 153.5 25.5t128.5 65.5l40-60q-60-46-147-75t-174-29q-231 0-353 121.5t-122 322.5zm351-106q0-17 11-28t29-11q22 0 52.5 16.5t51.5 42.5v71q-57-10-100.5-33t-43.5-58z"/><glyph unicode="A" horiz-adv-x="659" d="M18 0l273 670h78l272-670h-130l-64 162h-234l-64-162h-131zm235 265h153l-76 193z"/><glyph unicode="B" horiz-adv-x="582" d="M73 0v670h212q220 0 220-168 0-51-29-88t-75-51q70-12 106.5-54.5t36.5-109.5q0-96-61-147.5t-168-51.5h-242zm128 116h86q122 0 122 91 0 49-34 70.5t-106 21.5h-68v-183zm0 290h57q55 0 84.5 20.5t29.5 57.5q0 70-85 70h-86v-148z"/><glyph unicode="C" horiz-adv-x="610" d="M43 326q0 176 90.5 267t244.5 91q112 0 185-42l-20-111q-77 42-159 42-111 0-161-66.5t-50-169.5q0-110 54.5-175t165.5-65q89 0 161 43l18-107q-36-22-91-34.5t-105-12.5q-155 0-244 89.5t-89 250.5z"/><glyph unicode="D" horiz-adv-x="690" d="M73 0v670h235q339 0 339-334 0-68-17-126t-53.5-106.5-100-76-149.5-27.5h-254zm128 116h92q219 0 219 220 0 218-214 218h-97v-438z"/><glyph unicode="E" horiz-adv-x="521" d="M73 0v670h393v-116h-264v-146h212v-112h-212v-180h269v-116h-398z"/><glyph unicode="F" horiz-adv-x="493" d="M73 0v670h392v-116h-263v-150h210v-113h-210v-291h-129z"/><glyph unicode="G" horiz-adv-x="676" d="M43 326q0 169 90.5 263.5t258.5 94.5q113 0 199-44l-23-110q-71 43-170 43-106 0-165-60.5t-59-186.5q0-98 56.5-163.5t167.5-65.5q47 0 81 13v128h-115v112h242v-326q-97-38-220-38-155 0-249 89.5t-94 250.5z"/><glyph unicode="H" horiz-adv-x="699" d="M73 0v670h128v-257h297v257h128v-670h-128v299h-297v-299h-128z"/><glyph unicode="I" horiz-adv-x="274" d="M73 0v670h128v-670h-128z"/><glyph unicode="J" horiz-adv-x="281" d="M-20-22q69 32 86 65t17 125v502h125v-506q0-122-38.5-182t-136.5-97z"/><glyph unicode="K" horiz-adv-x="636" d="M73 0v670h129v-670h-129zm133 347l235 323h155l-251-317 176-241q13-17 22-23t27-6h20v-83q-35-8-76-8-67 0-108 60z"/><glyph unicode="L" horiz-adv-x="515" d="M73 0v670h129v-554h273v-116h-402z"/><glyph unicode="M" horiz-adv-x="819" d="M73 0v670h141l199-446 193 446h140v-670h-124v406l-182-406h-60l-182 408v-408h-125z"/><glyph unicode="N" horiz-adv-x="690" d="M73 0v670h138l280-402v402h126v-670h-92l-325 475v-475h-127z"/><glyph unicode="O" horiz-adv-x="705" d="M43 335q0 156 78 252.5t230 96.5q155 0 233-97t78-251q0-158-79-254t-232-96-230.5 96.5-77.5 252.5zm130 0q0-237 178-237 91 0 136 57.5t45 180.5q0 236-181 236-178 0-178-237z"/><glyph unicode="P" horiz-adv-x="559" d="M73 0v670h226q217 0 217-188 0-98-63.5-156t-191.5-58h-59v-268h-129zm129 378h61q124 0 124 101 0 44-25.5 59.5t-74.5 15.5h-85v-176z"/><glyph unicode="Q" horiz-adv-x="705" d="M43 335q0 156 78 252.5t230 96.5q155 0 233-97t78-251q0-126-51-214.5t-150-119.5q59-78 93.5-106.5t73.5-28.5h16v-94q-22-8-69-8-34 0-69.5 19t-71 57-58.5 68-57 78q-137 10-206.5 105.5t-69.5 242.5zm130 0q0-237 178-237 91 0 136 57.5t45 180.5q0 236-181 236-178 0-178-237z"/><glyph unicode="R" horiz-adv-x="615" d="M73 0v670h221q220 0 220-189 0-63-38.5-112.5t-116.5-63.5q30-10 45.5-23.5t31.5-40.5l70-124q20-34 46-34h28v-83q-24-8-82-8-66 0-103 68l-99 178q-13 24-26 30.5t-36 6.5h-32v-275h-129zm129 385h80q102 0 102 91 0 47-26.5 62.5t-83.5 15.5h-72v-169z"/><glyph unicode="S" horiz-adv-x="488" d="M31 37l16 109q36-24 85-39t89-15q46 0 74.5 23.5t28.5 58.5q0 34-28.5 61t-69.5 48-82.5 45-70 65.5-28.5 96.5q0 91 59.5 142.5t149.5 51.5q97 0 174-43l-19-109q-68 43-145 43-42 0-69-18t-27-51q0-29 29.5-53t71-44.5 83-46 71-69.5 29.5-102q0-91-63.5-148t-165.5-57q-104 0-192 51z"/><glyph unicode="T" horiz-adv-x="639" d="M45 553v117h549v-117h-210v-553h-129v553h-210z"/><glyph unicode="U" horiz-adv-x="694" d="M68 240v430h129v-407q0-160 149-160 76 0 113.5 42t37.5 109v416h129v-439q0-115-80-180t-202-65q-118 0-197 64t-79 190z"/><glyph unicode="V" horiz-adv-x="640" d="M18 670h132l171-455 169 455h132l-264-670h-78z"/><glyph unicode="W" horiz-adv-x="925" d="M18 670h132l136-449 112 353-31 96h132l130-449 146 449h132l-239-670h-81l-129 392-133-392h-81z"/><glyph unicode="X" horiz-adv-x="653" d="M33 0l204 352-184 318h141l133-237 133 237h140l-185-317 205-353h-144l-148 277-150-277h-145z"/><glyph unicode="Y" horiz-adv-x="592" d="M18 670h137l142-283 140 283h137l-215-401v-269h-128v267z"/><glyph unicode="Z" horiz-adv-x="612" d="M48 0v89l326 464h-307v117h481v-92l-331-462h342v-116h-511z"/><glyph unicode="[" horiz-adv-x="426" d="M68-157v948h310v-86h-194v-776h194v-86h-310z"/><glyph unicode="\" horiz-adv-x="556" d="M9 775h100l438-1010h-100z"/><glyph unicode="]" horiz-adv-x="426" d="M48-71h194v776h-194v86h310v-948h-310v86z"/><glyph unicode="^" d="M55 292l195 368h50l195-368-85-42-135 272-135-272z"/><glyph unicode="_" d="M-5-86h560v-84h-560v84z"/><glyph unicode="`" horiz-adv-x="400" d="M102 720l135 32 61-172-50-22z"/><glyph unicode="a" horiz-adv-x="508" d="M35 94q0 27 10.5 50.5t26 39.5 41.5 30.5 46.5 22.5 52 16.5 49 11.5 44.5 8v52q0 33-16.5 46.5t-58.5 13.5q-70 0-159-37l-19 89q48 28 107.5 42.5t100.5 14.5q91 0 129-37.5t38-111.5v-267q0-14 6.5-19.5t22.5-5.5h27v-52q-58-11-105-11-36 0-52.5 13.5t-20.5 47.5q-25-28-65-46.5t-82-18.5q-55 0-89 29t-34 79zm126 20q0-17 11-28t29-11q22 0 52.5 16.5t51.5 42.5v71q-57-10-100.5-33t-43.5-58z"/><glyph unicode="b" horiz-adv-x="548" d="M62-14v715l122 25v-290q52 58 134 58 88 0 141.5-66t53.5-181q0-120-62-190.5t-171-70.5q-35 0-68.5 12t-51.5 26l-29-38h-69zm122 129q42-28 91-28 52 0 82.5 38.5t30.5 112.5q0 65-23.5 107t-74.5 42q-60 0-106-57v-215z"/><glyph unicode="c" horiz-adv-x="452" d="M35 240q0 119 64.5 186.5t161.5 67.5q89 0 152-43l-23-90q-58 27-109 27-60 0-90.5-40.5t-30.5-107.5q0-148 123-148 61 0 120 31l19-91q-25-19-69.5-32.5t-88.5-13.5q-101 0-165 63.5t-64 190.5z"/><glyph unicode="d" horiz-adv-x="548" d="M35 232q0 118 57.5 190t169.5 72q60 0 102-24v231l122 25v-726h-122v44q-52-58-138-58-85 0-138 65.5t-53 180.5zm125 2q0-141 92-141 69 0 112 57v215q-41 28-96 28-108 0-108-159z"/><glyph unicode="e" horiz-adv-x="503" d="M35 226q0 125 64.5 196.5t180.5 71.5q85 0 134-46.5t49-133.5q0-57-12-93h-291v-1q0-62 34-95.5t97-33.5q76 0 152 41l19-91q-27-20-82.5-37.5t-106.5-17.5q-105 0-171.5 59.5t-66.5 180.5zm131 76h170q1 3 1 25 0 64-66 64-80 0-105-89z"/><glyph unicode="f" horiz-adv-x="315" d="M10 386v94h69v41q0 57 17 98.5t46 64 61 32.5 67 10q38 0 55-6l-14-97h-12q-59 0-78.5-26.5t-19.5-78.5v-38h99v-94h-99v-386h-122v386h-69z"/><glyph unicode="g" horiz-adv-x="548" d="M35 229q0 135 63 200t174 65q110 0 214-50v-462q0-114-61-165.5t-186-51.5q-48 0-101 11t-83 26l24 100q86-31 155-31 63 0 96.5 23t33.5 87v63q-58-58-138-58-90 0-140.5 68.5t-50.5 174.5zm125 5q0-141 92-141 69 0 112 57v220q-41 23-96 23-108 0-108-159z"/><glyph unicode="h" horiz-adv-x="549" d="M62 0v702l122 24v-302q62 70 158 70 74 0 112.5-46t38.5-120v-328h-122v297q0 41-19.5 63t-55.5 22q-57 0-112-57v-325h-122z"/><glyph unicode="i" horiz-adv-x="246" d="M45 645q0 32 22.5 54.5t55.5 22.5q34 0 57.5-22.5t23.5-54.5-23.5-54-57.5-22q-33 0-55.5 22t-22.5 54zm17-645v469l122 25v-494h-122z"/><glyph unicode="j" horiz-adv-x="246" d="M-62-141h21q59 0 81 30.5t22 87.5v492l122 25v-520q0-107-49.5-157.5t-147.5-50.5q-25 0-42 5zm107 790q0 32 22.5 54.5t55.5 22.5q34 0 57.5-22.5t23.5-54.5-23.5-54-57.5-22q-33 0-55.5 22t-22.5 54z"/><glyph unicode="k" horiz-adv-x="536" d="M62 0v702l122 24v-726h-122zm126 262l171 218h147l-183-215 128-181q23-31 75-31v-52q-31-12-83-12-68 0-103 50z"/><glyph unicode="l" horiz-adv-x="246" d="M62 0v702l122 24v-726h-122z"/><glyph unicode="m" horiz-adv-x="826" d="M62 0v470l122 24v-70q66 70 152 70 94 0 127-73 67 73 163 73 67 0 105.5-45t38.5-121v-328h-122v301q0 81-68 81-59 0-100-55v-327h-122v301q0 81-68 81-53 0-106-57v-325h-122z"/><glyph unicode="n" horiz-adv-x="549" d="M62 0v470l122 24v-70q62 70 158 70 74 0 112.5-46t38.5-120v-328h-122v297q0 41-19.5 63t-55.5 22q-57 0-112-57v-325h-122z"/><glyph unicode="o" horiz-adv-x="534" d="M35 236q0 126 59 192t172 66q114 0 173.5-65t59.5-190q0-129-61.5-191t-171.5-62q-107 0-169 63t-62 187zm125 1q0-68 26.5-109.5t80.5-41.5q55 0 81 42t26 109q0 76-27 116.5t-80 40.5q-54 0-80.5-41t-26.5-116z"/><glyph unicode="p" horiz-adv-x="548" d="M62-221v695l122 20v-58q52 58 134 58 88 0 141.5-66t53.5-181q0-120-62-190.5t-171-70.5q-48 0-96 23v-230h-122zm122 336q42-28 91-28 52 0 82.5 38.5t30.5 112.5q0 65-23.5 107t-74.5 42q-60 0-106-57v-215z"/><glyph unicode="q" horiz-adv-x="548" d="M35 229q0 135 63 200t174 65q110 0 214-50v-665h-122v265q-58-58-138-58-90 0-140.5 68.5t-50.5 174.5zm125 5q0-141 92-141 69 0 112 57v220q-41 23-96 23-108 0-108-159z"/><glyph unicode="r" horiz-adv-x="374" d="M62 0v470l122 24v-95q67 95 126 95 30 0 44-14l-14-105q-11 3-25 3-48 0-131-92v-286h-122z"/><glyph unicode="s" horiz-adv-x="432" d="M30 30l24 96q29-17 75-29.5t83-12.5q28 0 45 10.5t17 30.5q0 25-19 38.5t-84 38.5q-67 26-97 54.5t-30 87.5q0 71 51 110.5t131 39.5q87 0 153-37l-24-95q-56 28-121 28-66 0-66-40 0-18 19.5-29t70.5-30q70-26 104.5-62.5t34.5-92.5q0-71-54.5-110.5t-134.5-39.5q-44 0-95 12.5t-83 31.5z"/><glyph unicode="t" horiz-adv-x="383" d="M20 387v93h70l59 119h62v-119h130v-93h-130v-248q0-48 38-48 34 0 85 18l14-90q-50-33-121-33-137 0-137 143v258h-70z"/><glyph unicode="u" horiz-adv-x="540" d="M52 152v328h122v-302q0-85 72-85 54 0 110 56v331h122v-480h-122v50q-62-64-153-64-74 0-112.5 46t-38.5 120z"/><glyph unicode="v" horiz-adv-x="499" d="M15 480h130l105-287 104 287h130l-190-480h-90z"/><glyph unicode="w" horiz-adv-x="746" d="M15 480h128l90-278 100 278h81l101-276 89 276h127l-175-480h-79l-107 283-105-283h-77z"/><glyph unicode="x" horiz-adv-x="528" d="M15 0l180 242-169 238h150l95-139 97 139h142l-176-230 179-250h-150l-103 149-104-149h-141z"/><glyph unicode="y" horiz-adv-x="508" d="M5-216l20 88q27-12 62-12 40 0 66 38.5t55 120.5l-190 461h130l117-301 103 301h125l-197-535q-31-85-75-132.5t-122-47.5q-57 0-94 19z"/><glyph unicode="z" horiz-adv-x="510" d="M40 0v80l248 298h-234v102h407v-81l-250-298h259v-101h-430z"/><glyph unicode="{" horiz-adv-x="474" d="M38 280v73q73 13 97 39.5t24 97.5v139q0 93 45.5 127.5t134.5 34.5h87v-86h-61q-53 0-71.5-14t-18.5-74v-130q0-73-27-111.5t-96-57.5q69-21 96-59.5t27-110.5v-152q0-43 21.5-55t68.5-12h61v-86h-77q-97 0-143.5 32.5t-46.5 119.5v150q0 70-24 96t-97 39z"/><glyph unicode="|" horiz-adv-x="300" d="M101-235v1010h98v-1010h-98z"/><glyph unicode="}" horiz-adv-x="474" d="M48-71h61q31 0 47.5 3t29.5 18.5 13 45.5v152q0 72 27 110.5t96 59.5q-69 19-96 57.5t-27 111.5v130q0 60-18.5 74t-71.5 14h-61v86h87q89 0 134.5-34.5t45.5-127.5v-139q0-71 24-97.5t97-39.5v-73q-73-13-97-39t-24-96v-150q0-87-46.5-119.5t-143.5-32.5h-77v86z"/><glyph unicode="~" d="M50 245q15 55 42.5 94t70.5 39q37 0 114.5-29t97.5-29q22 0 34 13t20 41l71-21q-15-55-42.5-94t-70.5-39q-37 0-114.5 29t-97.5 29q-22 0-34-13t-20-41z"/><glyph unicode="¡" horiz-adv-x="294" d="M67-190l39 461h83l38-461h-160zm7 611q0 30 22 51.5t53 21.5q32 0 53.5-21t21.5-53q0-30-22-51.5t-53-21.5q-32 0-53.5 21t-21.5 53z"/><glyph unicode="¢" d="M70 240q0 109 57.5 175t148.5 77v101h75v-102q66-8 117-40l-24-90q-44 19-93 25v-293q55 4 106 30l20-91q-46-34-126-43v-103h-75v102q-92 10-149 73t-57 179zm125 0q0-120 81-142v283q-81-29-81-141z"/><glyph unicode="£" d="M61 0v79q77 36 109 72t32 86q0 23-10 53h-107v69h81q-21 56-21 111 0 89 59.5 139.5t153.5 50.5q61 0 102-13l-10-113q-48 13-91 13-53 0-72-25t-19-55q0-40 26-108h152v-69h-128q7-31 7-55 0-41-22.5-68.5t-68.5-50.5h244v-116h-417z"/><glyph unicode="¤" d="M52 138l70 70q-21 40-21 94t22 95l-71 72 58 58 70-71q39 24 93 24 55 0 97-24l70 71 58-58-72-72q22-39 22-95 0-55-21-94l71-70-58-58-69 69q-39-24-98-24-53 0-95 24l-68-69zm151 164q0-87 71-87 24 0 40 10t22.5 26 8.5 28 2 23q0 49-23 69t-51 20q-24 0-40-12.5t-21.5-31.5-7-28.5-1.5-16.5z"/><glyph unicode="¥" d="M5 646h138l133-253 131 253h138l-171-302h99v-68h-135v-50h135v-69h-135v-157h-128v157h-139v69h139v50h-139v68h101z"/><glyph unicode="¦" horiz-adv-x="300" d="M101 135h98v-370h-98v370zm0 270v370h98v-370h-98z"/><glyph unicode="§" horiz-adv-x="483" d="M49 276q0 52 31.5 88t86.5 51q-78 49-78 124 0 70 50 107.5t131 37.5q83 0 143-34l-21-97q-18 11-53 19t-63 8q-63 0-63-40 0-16 23-31t55.5-30.5 65.5-35 56-54 23-78.5q0-52-32-88t-86-51q78-50 78-124 0-70-50-107.5t-131-37.5q-83 0-143 34l21 97q18-11 53-19t63-8q63 0 63 40 0 16-23 31t-56 30.5-65.5 35-55.5 54-23 78.5zm125 12q0-32 43-61 36 3 65 19.5t29 52.5q0 33-44 60-36-3-64.5-19.5t-28.5-51.5z"/><glyph unicode="¨" horiz-adv-x="400" d="M11 645q0 31 22 52.5t53 21.5q32 0 55-21.5t23-52.5q0-30-23-51.5t-55-21.5q-31 0-53 21.5t-22 51.5zm225 0q0 31 22 52.5t53 21.5q32 0 55-21.5t23-52.5q0-30-23-51.5t-55-21.5q-31 0-53 21.5t-22 51.5z"/><glyph unicode="©" horiz-adv-x="786" d="M43 336q0 148 102 248t248 100 248-99.5 102-248.5q0-146-102.5-248t-247.5-102-247.5 102-102.5 248zm76 0q0-118 78.5-196.5t195.5-78.5q118 0 196 78.5t78 196.5q0 117-78.5 196.5t-195.5 79.5q-115 0-194.5-79.5t-79.5-196.5zm94-7q0 91 53 145.5t142 54.5q59 0 106-25l-13-81q-43 25-90 25-102 0-102-119 0-44 24.5-76t83.5-32q56 0 98 21l7-78q-44-25-113-25-88 0-142 49.5t-54 140.5z"/><glyph unicode="ª" horiz-adv-x="368" d="M33 411q0 32 19.5 56.5t52 38 60 20.5 57.5 11v25q0 25-12.5 33.5t-41.5 8.5q-50 0-109-26l-14 66q67 40 146 40 120 0 120-105v-177q0-19 20-19h19v-44q-14-7-77-7-25 0-36.5 9t-14.5 33q-40-45-102-45-36 0-61.5 20t-25.5 62zm94 13q0-27 25-27 15 0 35.5 11t34.5 30v44q-95-15-95-58z"/><glyph unicode="«" horiz-adv-x="589" d="M38 238l188 207 66-61-110-146 110-146-66-61zm239 0l188 207 66-61-110-146 110-146-66-61z"/><glyph unicode="¬" d="M45 335v90h450v-242h-92v152h-358z"/><glyph unicode="­" horiz-adv-x="350" d="M35 209v84h280v-84h-280z"/><glyph unicode="®" horiz-adv-x="786" d="M43 336q0 148 102 248t248 100 248-99.5 102-248.5q0-146-102.5-248t-247.5-102-247.5 102-102.5 248zm76 0q0-118 78.5-196.5t195.5-78.5q118 0 196 78.5t78 196.5q0 117-78.5 196.5t-195.5 79.5q-115 0-194.5-79.5t-79.5-196.5zm150-187v371h133q125 0 125-105 0-82-90-99 30-7 46-35l37-67q10-18 25-18h15v-51q-15-4-56-4-37 0-57 38l-51 91q-11 21-31 21h-9v-142h-87zm87 213h28q58 0 58 50 0 26-13.5 35t-44.5 9h-28v-94z"/><glyph unicode="¯" horiz-adv-x="400" d="M65 590v95h270v-95h-270z"/><glyph unicode="°" d="M112 501q0 72 47 115.5t116 43.5 116-44 47-116-47-115.5-116-43.5-116 44-47 116zm79 0q0-40 24.5-65t59.5-25 59.5 24.5 24.5 64.5-24.5 65-59.5 25-59.5-24.5-24.5-64.5z"/><glyph unicode="±" d="M50 0v90h450v-90h-450zm0 292v96h175v159h98v-159h177v-96h-177v-142h-98v142h-175z"/><glyph unicode="²" horiz-adv-x="400" d="M35 327v50q84 61 143.5 124t59.5 105q0 45-54 45-52 0-105-41l-40 72q26 22 69 38t90 16q71 0 104.5-33t33.5-86q0-55-31-101.5t-98-107.5h142l-5-81h-309z"/><glyph unicode="³" horiz-adv-x="400" d="M48 372l50 65q37-39 95-39 60 0 60 39 0 54-96 54h-37v68q57 4 85 19.5t28 38.5q0 17-13 28t-37 11q-56 0-95-41l-34 66q55 55 149 55 57 0 92.5-26t35.5-75q0-74-90-101 108-12 108-102 0-52-39-83t-119-31q-89 0-143 54z"/><glyph unicode="´" horiz-adv-x="400" d="M102 580l61 172 136-30-147-164z"/><glyph unicode="µ" d="M62-47v527h122v-302q0-85 72-85 54 0 110 56v331h122v-480h-122v50q-62-64-153-64-12 0-30 2v-34q0-41 15-63.5t50-42.5l-49-83q-137 33-137 188z"/><glyph unicode="¶" horiz-adv-x="706" d="M48 469q0 201 243 201h372v-92h-84v-662h-117v663h-75v-663h-117v353q-109 0-165.5 54.5t-56.5 145.5zm109 1q0-105 113-105v214q-113 0-113-109z"/><glyph unicode="·" horiz-adv-x="254" d="M52 315q0 30 22 51.5t53 21.5q32 0 53.5-21t21.5-53q0-30-22-51.5t-53-21.5q-32 0-53.5 21t-21.5 53z"/><glyph unicode="¸" horiz-adv-x="400" d="M98-215l19 49q26-16 57-16 39 0 39 26 0 33-79 33l-11 26 76 97h72l-47-58q47-2 73.5-22.5t26.5-54.5q0-42-38-71t-103-29q-47 0-85 20z"/><glyph unicode="¹" horiz-adv-x="400" d="M72 327v68l87 7v242l-87-10v71l137 23h53v-326l84-7v-68h-274z"/><glyph unicode="º" horiz-adv-x="391" d="M33 504q0 87 41.5 133.5t120.5 46.5q80 0 121.5-45.5t41.5-132.5q0-91-43.5-134t-119.5-43q-75 0-118.5 44t-43.5 131zm92 0q0-98 71-98 70 0 70 98 0 55-17 79t-53 24q-37 0-54-24.5t-17-78.5z"/><glyph unicode="»" horiz-adv-x="589" d="M58 92l110 146-110 146 66 61 188-207-188-207zm239 0l110 146-110 146 66 61 188-207-188-207z"/><glyph unicode="¼" horiz-adv-x="1000" d="M50 251v68l87 7v242l-87-10v71l137 23h53v-326l84-7v-68h-274zm216-210l447 619 72-54-448-620zm338 45v56l236 262h68v-243h42v-75h-42v-86h-95v86h-209zm111 75h98v103z"/><glyph unicode="½" horiz-adv-x="1000" d="M50 251v68l87 7v242l-87-10v71l137 23h53v-326l84-7v-68h-274zm178-210l447 619 72-54-448-620zm408-41v50q84 61 143.5 124t59.5 105q0 45-54 45-52 0-105-41l-40 72q26 22 69 38t90 16q71 0 104.5-33t33.5-86q0-55-31-101.5t-98-107.5h142l-5-81h-309z"/><glyph unicode="¾" horiz-adv-x="1000" d="M50 288l50 65q37-39 95-39 60 0 60 39 0 54-96 54h-37v68q57 4 85 19.5t28 38.5q0 17-13 28t-37 11q-56 0-95-41l-34 66q55 55 149 55 57 0 92.5-26t35.5-75q0-74-90-101 108-12 108-102 0-52-39-83t-119-31q-89 0-143 54zm213-247l447 619 72-54-448-620zm341 45v56l236 262h68v-243h42v-75h-42v-86h-95v86h-209zm111 75h98v103z"/><glyph unicode="¿" horiz-adv-x="394" d="M18-46q0 36 17.5 68t42.5 55.5 50 45 42.5 47 17.5 51.5q0 27-4 50h112q9-27 9-62 0-38-16-70.5t-39-54.5-46-42-39-42-16-45q0-53 67-53 57 0 121 37l39-94q-28-20-76.5-34.5t-97.5-14.5q-84 0-134 43t-50 115zm142 467q0 30 22 51.5t53 21.5q32 0 53.5-21t21.5-53q0-30-22-51.5t-53-21.5q-32 0-53.5 21t-21.5 53z"/><glyph unicode="À" horiz-adv-x="659" d="M18 0l273 670h78l272-670h-130l-64 162h-234l-64-162h-131zm116 807l118 91 128-130-37-42zm119-542h153l-76 193z"/><glyph unicode="Á" horiz-adv-x="659" d="M18 0l273 670h78l272-670h-130l-64 162h-234l-64-162h-131zm235 265h153l-76 193zm22 503l128 130 118-91-209-81z"/><glyph unicode="Â" horiz-adv-x="659" d="M18 0l273 670h78l272-670h-130l-64 162h-234l-64-162h-131zm182 742l90 142h81l89-142-49-17-81 60-81-60zm53-477h153l-76 193z"/><glyph unicode="Ã" horiz-adv-x="659" d="M18 0l273 670h78l272-670h-130l-64 162h-234l-64-162h-131zm168 749q24 135 87 135 20 0 68-20.5t63-20.5q24 0 39 39l43-9q-24-135-87-135-20 0-68 20.5t-63 20.5q-24 0-39-39zm67-484h153l-76 193z"/><glyph unicode="Ä" horiz-adv-x="659" d="M18 0l273 670h78l272-670h-130l-64 162h-234l-64-162h-131zm123 808q0 31 22 52.5t53 21.5q32 0 55-21.5t23-52.5q0-30-23-51.5t-55-21.5q-31 0-53 21.5t-22 51.5zm112-543h153l-76 193zm113 543q0 31 22 52.5t53 21.5q32 0 55-21.5t23-52.5q0-30-23-51.5t-55-21.5q-31 0-53 21.5t-22 51.5z"/><glyph unicode="Å" horiz-adv-x="659" d="M18 0l273 670h78l272-670h-130l-64 162h-234l-64-162h-131zm200 809q0 48 32 76.5t80 28.5q47 0 79.5-29t32.5-76-32.5-75.5-79.5-28.5q-48 0-80 28.5t-32 75.5zm35-544h153l-76 193zm39 544q0-45 39-45 40 0 40 45 0 48-40 48-39 0-39-48z"/><glyph unicode="Æ" horiz-adv-x="913" d="M8 0l448 670h407v-116h-274v-146h212v-112h-212v-180h269v-116h-398v163h-197l-107-163h-148zm322 266h130v197z"/><glyph unicode="Ç" horiz-adv-x="610" d="M43 326q0 176 90.5 267t244.5 91q112 0 185-42l-20-111q-77 42-159 42-111 0-161-66.5t-50-169.5q0-110 54.5-175t165.5-65q89 0 161 43l18-107q-66-41-179-47l-36-44q47-2 73.5-22.5t26.5-54.5q0-42-38-71t-103-29q-47 0-85 20l19 49q26-16 57-16 39 0 39 26 0 33-79 33l-11 26 67 86q-132 15-206 103t-74 234z"/><glyph unicode="È" horiz-adv-x="521" d="M73 0v670h393v-116h-264v-146h212v-112h-212v-180h269v-116h-398zm28 807l118 91 128-130-37-42z"/><glyph unicode="É" horiz-adv-x="521" d="M73 0v670h393v-116h-264v-146h212v-112h-212v-180h269v-116h-398zm83 768l128 130 118-91-209-81z"/><glyph unicode="Ê" horiz-adv-x="521" d="M73 0v670h393v-116h-264v-146h212v-112h-212v-180h269v-116h-398zm67 742l90 142h81l89-142-49-17-81 60-81-60z"/><glyph unicode="Ë" horiz-adv-x="521" d="M73 0v670h393v-116h-264v-146h212v-112h-212v-180h269v-116h-398zm1 808q0 31 22 52.5t53 21.5q32 0 55-21.5t23-52.5q0-30-23-51.5t-55-21.5q-31 0-53 21.5t-22 51.5zm225 0q0 31 22 52.5t53 21.5q32 0 55-21.5t23-52.5q0-30-23-51.5t-55-21.5q-31 0-53 21.5t-22 51.5z"/><glyph unicode="Ì" horiz-adv-x="274" d="M-45 807l118 91 128-130-37-42zm118-807v670h128v-670h-128z"/><glyph unicode="Í" horiz-adv-x="274" d="M73 0v670h128v-670h-128zm0 768l128 130 118-91-209-81z"/><glyph unicode="Î" horiz-adv-x="274" d="M7 742l90 142h81l89-142-49-17-81 60-81-60zm66-742v670h128v-670h-128z"/><glyph unicode="Ï" horiz-adv-x="274" d="M-51 808q0 31 22 52.5t53 21.5q32 0 55-21.5t23-52.5q0-30-23-51.5t-55-21.5q-31 0-53 21.5t-22 51.5zm124-808v670h128v-670h-128zm101 808q0 31 22 52.5t53 21.5q32 0 55-21.5t23-52.5q0-30-23-51.5t-55-21.5q-31 0-53 21.5t-22 51.5z"/><glyph unicode="Ð" horiz-adv-x="711" d="M13 316v70h81v284h235q339 0 339-334 0-68-17-126t-53.5-106.5-100-76-149.5-27.5h-254v316h-81zm209-200h92q219 0 219 220 0 218-214 218h-97v-168h119v-70h-119v-200z"/><glyph unicode="Ñ" horiz-adv-x="690" d="M73 0v670h138l280-402v402h126v-670h-92l-325 475v-475h-127zm122 749q24 135 87 135 20 0 68-20.5t63-20.5q24 0 39 39l43-9q-24-135-87-135-20 0-68 20.5t-63 20.5q-24 0-39-39z"/><glyph unicode="Ò" horiz-adv-x="705" d="M43 335q0 156 78 252.5t230 96.5q155 0 233-97t78-251q0-158-79-254t-232-96-230.5 96.5-77.5 252.5zm130 0q0-237 178-237 91 0 136 57.5t45 180.5q0 236-181 236-178 0-178-237zm21 472l118 91 128-130-37-42z"/><glyph unicode="Ó" horiz-adv-x="705" d="M43 335q0 156 78 252.5t230 96.5q155 0 233-97t78-251q0-158-79-254t-232-96-230.5 96.5-77.5 252.5zm130 0q0-237 178-237 91 0 136 57.5t45 180.5q0 236-181 236-178 0-178-237zm71 433l128 130 118-91-209-81z"/><glyph unicode="Ô" horiz-adv-x="705" d="M43 335q0 156 78 252.5t230 96.5q155 0 233-97t78-251q0-158-79-254t-232-96-230.5 96.5-77.5 252.5zm130 0q0-237 178-237 91 0 136 57.5t45 180.5q0 236-181 236-178 0-178-237zm49 407l90 142h81l89-142-49-17-81 60-81-60z"/><glyph unicode="Õ" horiz-adv-x="705" d="M43 335q0 156 78 252.5t230 96.5q155 0 233-97t78-251q0-158-79-254t-232-96-230.5 96.5-77.5 252.5zm130 0q0-237 178-237 91 0 136 57.5t45 180.5q0 236-181 236-178 0-178-237zm33 414q24 135 87 135 20 0 68-20.5t63-20.5q24 0 39 39l43-9q-24-135-87-135-20 0-68 20.5t-63 20.5q-24 0-39-39z"/><glyph unicode="Ö" horiz-adv-x="705" d="M43 335q0 156 78 252.5t230 96.5q155 0 233-97t78-251q0-158-79-254t-232-96-230.5 96.5-77.5 252.5zm121 473q0 31 22 52.5t53 21.5q32 0 55-21.5t23-52.5q0-30-23-51.5t-55-21.5q-31 0-53 21.5t-22 51.5zm9-473q0-237 178-237 91 0 136 57.5t45 180.5q0 236-181 236-178 0-178-237zm216 473q0 31 22 52.5t53 21.5q32 0 55-21.5t23-52.5q0-30-23-51.5t-55-21.5q-31 0-53 21.5t-22 51.5z"/><glyph unicode="×" d="M75 168l129 130-129 130 71 69 128-129 129 129 71-69-130-130 130-130-71-69-129 129-128-129z"/><glyph unicode="Ø" horiz-adv-x="705" d="M37-34l85 115q-79 92-79 254 0 156 78 252.5t230 96.5q104 0 178-48l50 68h94l-88-119q77-93 77-249 0-158-79-254t-232-96q-102 0-172 45l-48-65h-94zm136 369q0-90 27-147l259 353q-41 31-108 31-178 0-178-237zm76-208q41-29 102-29 91 0 136 57.5t45 180.5q0 86-25 142z"/><glyph unicode="Ù" horiz-adv-x="694" d="M68 240v430h129v-407q0-160 149-160 76 0 113.5 42t37.5 109v416h129v-439q0-115-80-180t-202-65q-118 0-197 64t-79 190zm111 567l118 91 128-130-37-42z"/><glyph unicode="Ú" horiz-adv-x="694" d="M68 240v430h129v-407q0-160 149-160 76 0 113.5 42t37.5 109v416h129v-439q0-115-80-180t-202-65q-118 0-197 64t-79 190zm200 528l128 130 118-91-209-81z"/><glyph unicode="Û" horiz-adv-x="694" d="M68 240v430h129v-407q0-160 149-160 76 0 113.5 42t37.5 109v416h129v-439q0-115-80-180t-202-65q-118 0-197 64t-79 190zm149 502l90 142h81l89-142-49-17-81 60-81-60z"/><glyph unicode="Ü" horiz-adv-x="694" d="M68 240v430h129v-407q0-160 149-160 76 0 113.5 42t37.5 109v416h129v-439q0-115-80-180t-202-65q-118 0-197 64t-79 190zm90 568q0 31 22 52.5t53 21.5q32 0 55-21.5t23-52.5q0-30-23-51.5t-55-21.5q-31 0-53 21.5t-22 51.5zm225 0q0 31 22 52.5t53 21.5q32 0 55-21.5t23-52.5q0-30-23-51.5t-55-21.5q-31 0-53 21.5t-22 51.5z"/><glyph unicode="Ý" horiz-adv-x="592" d="M18 670h137l142-283 140 283h137l-215-401v-269h-128v267zm219 98l128 130 118-91-209-81z"/><glyph unicode="Þ" horiz-adv-x="559" d="M73 0v670h128v-134h98q217 0 217-188 0-98-63.5-156t-191.5-58h-59v-134h-129zm129 244h61q124 0 124 101 0 44-25.5 59.5t-74.5 15.5h-85v-176z"/><glyph unicode="ß" horiz-adv-x="635" d="M10 386v94h70v19q0 116 69.5 171.5t186.5 55.5q92 0 152.5-35t60.5-100q0-45-23.5-84t-51-61-51-45.5-23.5-41.5 21.5-33.5 52-30.5 60.5-34 51.5-51 21.5-74q0-66-50.5-108t-143.5-42q-44 0-89 11t-69 25l24 100q25-15 65-26.5t72-11.5q69 0 69 41 0 19-22 35.5t-53.5 31-63.5 33-54 51-22 76.5q0 31 15 58.5t36 48 42.5 39 36.5 39 15 41.5q0 22-22.5 35t-60.5 13q-130 0-130-135v-491h-122v386h-70z"/><glyph unicode="à" horiz-adv-x="508" d="M35 94q0 27 10.5 50.5t26 39.5 41.5 30.5 46.5 22.5 52 16.5 49 11.5 44.5 8v52q0 33-16.5 46.5t-58.5 13.5q-70 0-159-37l-19 89q48 28 107.5 42.5t100.5 14.5q91 0 129-37.5t38-111.5v-267q0-14 6.5-19.5t22.5-5.5h27v-52q-58-11-105-11-36 0-52.5 13.5t-20.5 47.5q-25-28-65-46.5t-82-18.5q-55 0-89 29t-34 79zm94 626l135 32 61-172-50-22zm32-606q0-17 11-28t29-11q22 0 52.5 16.5t51.5 42.5v71q-57-10-100.5-33t-43.5-58z"/><glyph unicode="á" horiz-adv-x="508" d="M35 94q0 27 10.5 50.5t26 39.5 41.5 30.5 46.5 22.5 52 16.5 49 11.5 44.5 8v52q0 33-16.5 46.5t-58.5 13.5q-70 0-159-37l-19 89q48 28 107.5 42.5t100.5 14.5q91 0 129-37.5t38-111.5v-267q0-14 6.5-19.5t22.5-5.5h27v-52q-58-11-105-11-36 0-52.5 13.5t-20.5 47.5q-25-28-65-46.5t-82-18.5q-55 0-89 29t-34 79zm126 20q0-17 11-28t29-11q22 0 52.5 16.5t51.5 42.5v71q-57-10-100.5-33t-43.5-58zm18 466l61 172 136-30-147-164z"/><glyph unicode="â" horiz-adv-x="508" d="M35 94q0 27 10.5 50.5t26 39.5 41.5 30.5 46.5 22.5 52 16.5 49 11.5 44.5 8v52q0 33-16.5 46.5t-58.5 13.5q-70 0-159-37l-19 89q48 28 107.5 42.5t100.5 14.5q91 0 129-37.5t38-111.5v-267q0-14 6.5-19.5t22.5-5.5h27v-52q-58-11-105-11-36 0-52.5 13.5t-20.5 47.5q-25-28-65-46.5t-82-18.5q-55 0-89 29t-34 79zm86 481l90 167h81l89-167-49-17-81 72-81-72zm40-461q0-17 11-28t29-11q22 0 52.5 16.5t51.5 42.5v71q-57-10-100.5-33t-43.5-58z"/><glyph unicode="ã" horiz-adv-x="508" d="M35 94q0 27 10.5 50.5t26 39.5 41.5 30.5 46.5 22.5 52 16.5 49 11.5 44.5 8v52q0 33-16.5 46.5t-58.5 13.5q-70 0-159-37l-19 89q48 28 107.5 42.5t100.5 14.5q91 0 129-37.5t38-111.5v-267q0-14 6.5-19.5t22.5-5.5h27v-52q-58-11-105-11-36 0-52.5 13.5t-20.5 47.5q-25-28-65-46.5t-82-18.5q-55 0-89 29t-34 79zm62 493q24 135 87 135 20 0 68-20.5t63-20.5q24 0 39 39l43-9q-24-135-87-135-20 0-68 20.5t-63 20.5q-24 0-39-39zm64-473q0-17 11-28t29-11q22 0 52.5 16.5t51.5 42.5v71q-57-10-100.5-33t-43.5-58z"/><glyph unicode="ä" horiz-adv-x="508" d="M35 94q0 27 10.5 50.5t26 39.5 41.5 30.5 46.5 22.5 52 16.5 49 11.5 44.5 8v52q0 33-16.5 46.5t-58.5 13.5q-70 0-159-37l-19 89q48 28 107.5 42.5t100.5 14.5q91 0 129-37.5t38-111.5v-267q0-14 6.5-19.5t22.5-5.5h27v-52q-58-11-105-11-36 0-52.5 13.5t-20.5 47.5q-25-28-65-46.5t-82-18.5q-55 0-89 29t-34 79zm24 551q0 31 22 52.5t53 21.5q32 0 55-21.5t23-52.5q0-30-23-51.5t-55-21.5q-31 0-53 21.5t-22 51.5zm102-531q0-17 11-28t29-11q22 0 52.5 16.5t51.5 42.5v71q-57-10-100.5-33t-43.5-58zm123 531q0 31 22 52.5t53 21.5q32 0 55-21.5t23-52.5q0-30-23-51.5t-55-21.5q-31 0-53 21.5t-22 51.5z"/><glyph unicode="å" horiz-adv-x="508" d="M35 94q0 27 10.5 50.5t26 39.5 41.5 30.5 46.5 22.5 52 16.5 49 11.5 44.5 8v52q0 33-16.5 46.5t-58.5 13.5q-70 0-159-37l-19 89q48 28 107.5 42.5t100.5 14.5q91 0 129-37.5t38-111.5v-267q0-14 6.5-19.5t22.5-5.5h27v-52q-58-11-105-11-36 0-52.5 13.5t-20.5 47.5q-25-28-65-46.5t-82-18.5q-55 0-89 29t-34 79zm107 557q0 48 32 76.5t80 28.5q47 0 79.5-29t32.5-76-32.5-75.5-79.5-28.5q-48 0-80 28.5t-32 75.5zm19-537q0-17 11-28t29-11q22 0 52.5 16.5t51.5 42.5v71q-57-10-100.5-33t-43.5-58zm55 537q0-45 39-45 40 0 40 45 0 48-40 48-39 0-39-48z"/><glyph unicode="æ" horiz-adv-x="770" d="M35 94q0 27 10.5 50.5t26 39.5 41.5 30.5 46.5 22.5 52 16.5 49 11.5 44.5 8v52q0 35-18 47.5t-60 12.5q-60 0-156-37l-19 89q49 28 108 42.5t100 14.5q92 0 132-48 60 48 155 48 85 0 134-46.5t49-133.5q0-57-12-93h-291v-1q0-62 34-95.5t97-33.5q76 0 152 41l19-91q-27-20-82.5-37.5t-106.5-17.5q-131 0-193 84-82-84-187-84-52 0-88.5 27t-36.5 81zm126 20q0-17 11-28t29-11q25 0 58 19t54 49q-7 26-10 61-57-10-99.5-33t-42.5-57zm273 188h169q1 3 1 25 0 64-66 64-79 0-104-89z"/><glyph unicode="ç" horiz-adv-x="452" d="M35 240q0 119 64.5 186.5t161.5 67.5q89 0 152-43l-23-90q-58 27-109 27-60 0-90.5-40.5t-30.5-107.5q0-148 123-148 61 0 120 31l19-91q-55-40-143-45l-36-45q47-2 73.5-22.5t26.5-54.5q0-42-38-71t-103-29q-47 0-85 20l19 49q26-16 57-16 39 0 39 26 0 33-79 33l-11 26 69 88q-80 15-128 77.5t-48 171.5z"/><glyph unicode="è" horiz-adv-x="503" d="M35 226q0 125 64.5 196.5t180.5 71.5q85 0 134-46.5t49-133.5q0-57-12-93h-291v-1q0-62 34-95.5t97-33.5q76 0 152 41l19-91q-27-20-82.5-37.5t-106.5-17.5q-105 0-171.5 59.5t-66.5 180.5zm89 494l135 32 61-172-50-22zm42-418h170q1 3 1 25 0 64-66 64-80 0-105-89z"/><glyph unicode="é" horiz-adv-x="503" d="M35 226q0 125 64.5 196.5t180.5 71.5q85 0 134-46.5t49-133.5q0-57-12-93h-291v-1q0-62 34-95.5t97-33.5q76 0 152 41l19-91q-27-20-82.5-37.5t-106.5-17.5q-105 0-171.5 59.5t-66.5 180.5zm131 76h170q1 3 1 25 0 64-66 64-80 0-105-89zm42 278l61 172 136-30-147-164z"/><glyph unicode="ê" horiz-adv-x="503" d="M35 226q0 125 64.5 196.5t180.5 71.5q85 0 134-46.5t49-133.5q0-57-12-93h-291v-1q0-62 34-95.5t97-33.5q76 0 152 41l19-91q-27-20-82.5-37.5t-106.5-17.5q-105 0-171.5 59.5t-66.5 180.5zm98 349l90 167h81l89-167-49-17-81 72-81-72zm33-273h170q1 3 1 25 0 64-66 64-80 0-105-89z"/><glyph unicode="ë" horiz-adv-x="503" d="M35 226q0 125 64.5 196.5t180.5 71.5q85 0 134-46.5t49-133.5q0-57-12-93h-291v-1q0-62 34-95.5t97-33.5q76 0 152 41l19-91q-27-20-82.5-37.5t-106.5-17.5q-105 0-171.5 59.5t-66.5 180.5zm41 419q0 31 22 52.5t53 21.5q32 0 55-21.5t23-52.5q0-30-23-51.5t-55-21.5q-31 0-53 21.5t-22 51.5zm90-343h170q1 3 1 25 0 64-66 64-80 0-105-89zm135 343q0 31 22 52.5t53 21.5q32 0 55-21.5t23-52.5q0-30-23-51.5t-55-21.5q-31 0-53 21.5t-22 51.5z"/><glyph unicode="ì" horiz-adv-x="246" d="M-12 720l135 32 61-172-50-22zm74-720v469l122 25v-494h-122z"/><glyph unicode="í" horiz-adv-x="246" d="M62 0v469l122 25v-494h-122zm0 580l61 172 136-30-147-164z"/><glyph unicode="î" horiz-adv-x="246" d="M-7 575l90 167h81l89-167-49-17-81 72-81-72zm69-575v469l122 25v-494h-122z"/><glyph unicode="ï" horiz-adv-x="246" d="M-65 645q0 31 22 52.5t53 21.5q32 0 55-21.5t23-52.5q0-30-23-51.5t-55-21.5q-31 0-53 21.5t-22 51.5zm127-645v469l122 25v-494h-122zm98 645q0 31 22 52.5t53 21.5q32 0 55-21.5t23-52.5q0-30-23-51.5t-55-21.5q-31 0-53 21.5t-22 51.5z"/><glyph unicode="ð" horiz-adv-x="519" d="M35 225q0 112 64 179t161 67q27 0 54-5-26 47-64 81l-117-49v78l50 21q-36 22-73 37l36 100q83-24 160-86l101 43v-78l-44-19q118-132 118-317 0-127-60-209t-167-82q-97 0-158 64t-61 175zm124 2q0-61 24-99t74-38q29 0 49.5 18t31 47.5 15 59.5 4.5 62q0 40-6 76-37 13-72 13-55 0-87.5-33.5t-32.5-105.5z"/><glyph unicode="ñ" horiz-adv-x="549" d="M62 0v470l122 24v-70q62 70 158 70 74 0 112.5-46t38.5-120v-328h-122v297q0 41-19.5 63t-55.5 22q-57 0-112-57v-325h-122zm64 587q24 135 87 135 20 0 68-20.5t63-20.5q24 0 39 39l43-9q-24-135-87-135-20 0-68 20.5t-63 20.5q-24 0-39-39z"/><glyph unicode="ò" horiz-adv-x="534" d="M35 236q0 126 59 192t172 66q114 0 173.5-65t59.5-190q0-129-61.5-191t-171.5-62q-107 0-169 63t-62 187zm87 484l135 32 61-172-50-22zm38-483q0-68 26.5-109.5t80.5-41.5q55 0 81 42t26 109q0 76-27 116.5t-80 40.5q-54 0-80.5-41t-26.5-116z"/><glyph unicode="ó" horiz-adv-x="534" d="M35 236q0 126 59 192t172 66q114 0 173.5-65t59.5-190q0-129-61.5-191t-171.5-62q-107 0-169 63t-62 187zm125 1q0-68 26.5-109.5t80.5-41.5q55 0 81 42t26 109q0 76-27 116.5t-80 40.5q-54 0-80.5-41t-26.5-116zm32 343l61 172 136-30-147-164z"/><glyph unicode="ô" horiz-adv-x="534" d="M35 236q0 126 59 192t172 66q114 0 173.5-65t59.5-190q0-129-61.5-191t-171.5-62q-107 0-169 63t-62 187zm102 339l90 167h81l89-167-49-17-81 72-81-72zm23-338q0-68 26.5-109.5t80.5-41.5q55 0 81 42t26 109q0 76-27 116.5t-80 40.5q-54 0-80.5-41t-26.5-116z"/><glyph unicode="õ" horiz-adv-x="534" d="M35 236q0 126 59 192t172 66q114 0 173.5-65t59.5-190q0-129-61.5-191t-171.5-62q-107 0-169 63t-62 187zm82 351q24 135 87 135 20 0 68-20.5t63-20.5q24 0 39 39l43-9q-24-135-87-135-20 0-68 20.5t-63 20.5q-24 0-39-39zm43-350q0-68 26.5-109.5t80.5-41.5q55 0 81 42t26 109q0 76-27 116.5t-80 40.5q-54 0-80.5-41t-26.5-116z"/><glyph unicode="ö" horiz-adv-x="534" d="M35 236q0 126 59 192t172 66q114 0 173.5-65t59.5-190q0-129-61.5-191t-171.5-62q-107 0-169 63t-62 187zm43 409q0 31 22 52.5t53 21.5q32 0 55-21.5t23-52.5q0-30-23-51.5t-55-21.5q-31 0-53 21.5t-22 51.5zm82-408q0-68 26.5-109.5t80.5-41.5q55 0 81 42t26 109q0 76-27 116.5t-80 40.5q-54 0-80.5-41t-26.5-116zm143 408q0 31 22 52.5t53 21.5q32 0 55-21.5t23-52.5q0-30-23-51.5t-55-21.5q-31 0-53 21.5t-22 51.5z"/><glyph unicode="÷" d="M50 254v97h450v-97h-450zm159-116q0 28 19 47.5t46 19.5q28 0 47.5-19.5t19.5-47.5q0-27-19.5-46t-47.5-19q-27 0-46 19t-19 46zm0 331q0 28 19 47t46 19q28 0 47.5-19t19.5-47-19.5-47-47.5-19q-27 0-46 19t-19 47z"/><glyph unicode="ø" horiz-adv-x="534" d="M31-25l59 82q-55 64-55 179 0 126 59 192t172 66q68 0 120-25l26 36h91l-59-82q55-66 55-184 0-129-61.5-191t-171.5-62q-69 0-118 25l-26-36h-91zm129 262q0-40 9-70l152 212q-23 15-54 15-54 0-80.5-41t-26.5-116zm53-136q21-15 54-15 55 0 81 42t26 109q0 43-9 76z"/><glyph unicode="ù" horiz-adv-x="540" d="M52 152v328h122v-302q0-85 72-85 54 0 110 56v331h122v-480h-122v50q-62-64-153-64-74 0-112.5 46t-38.5 120zm62 568l135 32 61-172-50-22z"/><glyph unicode="ú" horiz-adv-x="540" d="M52 152v328h122v-302q0-85 72-85 54 0 110 56v331h122v-480h-122v50q-62-64-153-64-74 0-112.5 46t-38.5 120zm164 428l61 172 136-30-147-164z"/><glyph unicode="û" horiz-adv-x="540" d="M52 152v328h122v-302q0-85 72-85 54 0 110 56v331h122v-480h-122v50q-62-64-153-64-74 0-112.5 46t-38.5 120zm85 423l90 167h81l89-167-49-17-81 72-81-72z"/><glyph unicode="ü" horiz-adv-x="540" d="M52 152v328h122v-302q0-85 72-85 54 0 110 56v331h122v-480h-122v50q-62-64-153-64-74 0-112.5 46t-38.5 120zm26 493q0 31 22 52.5t53 21.5q32 0 55-21.5t23-52.5q0-30-23-51.5t-55-21.5q-31 0-53 21.5t-22 51.5zm225 0q0 31 22 52.5t53 21.5q32 0 55-21.5t23-52.5q0-30-23-51.5t-55-21.5q-31 0-53 21.5t-22 51.5z"/><glyph unicode="ý" horiz-adv-x="508" d="M5-216l20 88q27-12 62-12 40 0 66 38.5t55 120.5l-190 461h130l117-301 103 301h125l-197-535q-31-85-75-132.5t-122-47.5q-57 0-94 19zm205 796l61 172 136-30-147-164z"/><glyph unicode="þ" horiz-adv-x="548" d="M62-221v923l122 24v-290q52 58 134 58 88 0 141.5-66t53.5-181q0-120-62-190.5t-171-70.5q-50 0-96 23v-230h-122zm122 336q42-28 91-28 52 0 82.5 38.5t30.5 112.5q0 65-23.5 107t-74.5 42q-60 0-106-57v-215z"/><glyph unicode="ÿ" horiz-adv-x="508" d="M5-216l20 88q27-12 62-12 40 0 66 38.5t55 120.5l-190 461h130l117-301 103 301h125l-197-535q-31-85-75-132.5t-122-47.5q-57 0-94 19zm68 861q0 31 22 52.5t53 21.5q32 0 55-21.5t23-52.5q0-30-23-51.5t-55-21.5q-31 0-53 21.5t-22 51.5zm225 0q0 31 22 52.5t53 21.5q32 0 55-21.5t23-52.5q0-30-23-51.5t-55-21.5q-31 0-53 21.5t-22 51.5z"/><glyph unicode="Œ" horiz-adv-x="885" d="M43 334q0 150 78 243t236 93h478v-116h-274v-146h212v-112h-212v-180h269v-116h-473q-158 0-236 88t-78 246zm130 0q0-104 44.5-162.5t151.5-58.5h63v443h-74q-44 0-77.5-14.5t-53.5-36.5-32.5-52.5-17-59-4.5-59.5z"/><glyph unicode="œ" horiz-adv-x="842" d="M35 236q0 126 59 192t172 66q116 0 173-71 63 71 180 71 85 0 134-46.5t49-133.5q0-57-12-93h-291v-1q0-62 34-95.5t97-33.5q76 0 152 41l19-91q-27-20-82.5-37.5t-106.5-17.5q-113 0-177 65-55-65-169-65-107 0-169 63t-62 187zm125 1q0-71 27-111t80-40 80 41 27 110q0 157-107 157t-107-157zm345 65h170q1 3 1 25 0 64-66 64-80 0-105-89z"/><glyph unicode="Ÿ" horiz-adv-x="592" d="M18 670h137l142-283 140 283h137l-215-401v-269h-128v267zm89 138q0 31 22 52.5t53 21.5q32 0 55-21.5t23-52.5q0-30-23-51.5t-55-21.5q-31 0-53 21.5t-22 51.5zm225 0q0 31 22 52.5t53 21.5q32 0 55-21.5t23-52.5q0-30-23-51.5t-55-21.5q-31 0-53 21.5t-22 51.5z"/><glyph unicode="ˆ" horiz-adv-x="400" d="M70 575l90 167h81l89-167-49-17-81 72-81-72z"/><glyph unicode="˜" horiz-adv-x="400" d="M50 587q24 135 87 135 20 0 68-20.5t63-20.5q24 0 39 39l43-9q-24-135-87-135-20 0-68 20.5t-63 20.5q-24 0-39-39z"/><glyph horiz-adv-x="457"/><glyph horiz-adv-x="914"/><glyph horiz-adv-x="457"/><glyph horiz-adv-x="914"/><glyph horiz-adv-x="304"/><glyph horiz-adv-x="228"/><glyph horiz-adv-x="152"/><glyph horiz-adv-x="152"/><glyph horiz-adv-x="114"/><glyph horiz-adv-x="182"/><glyph horiz-adv-x="50"/><glyph unicode="‐" horiz-adv-x="350" d="M35 209v84h280v-84h-280z"/><glyph unicode="‑" horiz-adv-x="350" d="M35 209v84h280v-84h-280z"/><glyph unicode="‒" horiz-adv-x="350" d="M35 209v84h280v-84h-280z"/><glyph unicode="–" horiz-adv-x="600" d="M35 209v84h530v-84h-530z"/><glyph unicode="—" horiz-adv-x="900" d="M35 209v84h830v-84h-830z"/><glyph unicode="‘" horiz-adv-x="273" d="M48 508q0 45 27.5 95t84.5 93l70-45q-54-67-54-127 0-50 14-90h-129q-13 30-13 74z"/><glyph unicode="’" horiz-adv-x="273" d="M43 468q54 67 54 127 0 50-14 90h129q13-30 13-74 0-45-27.5-95t-84.5-93z"/><glyph unicode="‚" horiz-adv-x="271" d="M33-115q54 67 54 127 0 50-14 90h129q11-26 11-74 0-45-27-95t-83-93z"/><glyph unicode="“" horiz-adv-x="453" d="M48 508q0 45 27.5 95t84.5 93l70-45q-54-67-54-127 0-50 14-90h-129q-13 30-13 74zm182 0q0 45 27 95t83 93l70-45q-54-67-54-127 0-50 14-90h-129q-11 26-11 74z"/><glyph unicode="”" horiz-adv-x="453" d="M43 467q54 67 54 127 0 50-14 90h129q11-26 11-74 0-45-27-95t-83-93zm180 0q54 67 54 127 0 50-14 90h129q13-30 13-74 0-45-27.5-95t-84.5-93z"/><glyph unicode="„" horiz-adv-x="453" d="M33-115q54 67 54 127 0 50-14 90h129q11-26 11-74 0-45-27-95t-83-93zm180 0q54 67 54 127 0 50-14 90h129q13-30 13-74 0-45-27.5-95t-84.5-93z"/><glyph unicode="•" horiz-adv-x="403" d="M55 316q0 62 42 104.5t103 42.5q63 0 105-42.5t42-104.5q0-60-42.5-102.5t-104.5-42.5q-61 0-103 42.5t-42 102.5z"/><glyph unicode="…" horiz-adv-x="750" d="M50 60q0 30 22 51.5t53 21.5q32 0 53.5-21t21.5-53q0-30-22-51.5t-53-21.5q-32 0-53.5 21t-21.5 53zm250 0q0 30 22 51.5t53 21.5q32 0 53.5-21t21.5-53q0-30-22-51.5t-53-21.5q-32 0-53.5 21t-21.5 53zm250 0q0 30 22 51.5t53 21.5q32 0 53.5-21t21.5-53q0-30-22-51.5t-53-21.5q-32 0-53.5 21t-21.5 53z"/><glyph horiz-adv-x="182"/><glyph unicode="‹" horiz-adv-x="350" d="M38 238l188 207 66-61-110-146 110-146-66-61z"/><glyph unicode="›" horiz-adv-x="350" d="M58 92l110 146-110 146 66 61 188-207-188-207z"/><glyph horiz-adv-x="228"/><glyph unicode="€" d="M48 229v69h51v50h-51v69h58q18 111 80 177t165 66q90 0 149-37l-32-109q-51 37-104 37-102 0-127-134h173v-69h-180q-1-9-1-25 0-17 1-25h180v-69h-174q22-132 127-132 63 0 112 37l27-108q-62-40-147-40-217 0-250 243h-57z"/><glyph unicode="™" horiz-adv-x="896" d="M28 601v69h331v-69h-125v-302h-82v302h-124zm404-302v371h87l118-260 114 260h87v-371h-81v214l-94-214h-57l-96 214v-214h-78z"/><glyph unicode="" horiz-adv-x="480" d="M0 0v480h480v-480h-480z"/><glyph unicode="ﬁ" horiz-adv-x="561" d="M10 386v94h69v41q0 57 17 98.5t46 64 61 32.5 67 10q38 0 55-6l-14-97h-12q-59 0-78.5-26.5t-19.5-78.5v-38h99v-94h-99v-386h-122v386h-69zm350 259q0 32 22.5 54.5t55.5 22.5q34 0 57.5-22.5t23.5-54.5-23.5-54-57.5-22q-33 0-55.5 22t-22.5 54zm17-645v469l122 25v-494h-122z"/><glyph unicode="ﬂ" horiz-adv-x="561" d="M10 386v94h69v41q0 57 17 98.5t46 64 61 32.5 67 10q38 0 55-6l-14-97h-12q-59 0-78.5-26.5t-19.5-78.5v-38h99v-94h-99v-386h-122v386h-69zm367-386v702l122 24v-726h-122z"/></font>
</defs>
</svg>
